HIERARCHY
ROOT Hips
{
  OFFSET 196.326 95.9168 97.7182
  CHANNELS 6 Xposition Yposition Zposition Zrotation Xrotation Yrotation
  JOINT LeftUpLeg
  {
    OFFSET 8.64259 1.95398 -2.38835
    CHANNELS 3 Zrotation Xrotation Yrotation
    JOINT LeftLeg
    {
      OFFSET 43.7702 0 0
      CHANNELS 3 Zrotation Xrotation Yrotation
      JOINT LeftFoot
      {
        OFFSET 40.6238 0 0
        CHANNELS 3 Zrotation Xrotation Yrotation
        JOINT LeftToeBase
        {
          OFFSET 12.7242 0 0
          CHANNELS 3 Zrotation Xrotation Yrotation
          End Site
          {
            OFFSET 0 0 0
          }
        }
      }
    }
  }
  JOINT RightUpLeg
  {
    OFFSET -8.2249 1.95398 -2.59336
    CHANNELS 3 Zrotation Xrotation Yrotation
    JOINT RightLeg
    {
      OFFSET 43.5653 0 0
      CHANNELS 3 Zrotation Xrotation Yrotation
      JOINT RightFoot
      {
        OFFSET 40.6238 0 0
        CHANNELS 3 Zrotation Xrotation Yrotation
        JOINT RightToeBase
        {
          OFFSET 12.7242 0 0
          CHANNELS 3 Zrotation Xrotation Yrotation
          End Site
          {
            OFFSET 0 0 0
          }
        }
      }
    }
  }
  JOINT Spine
  {
    OFFSET 0.165834 0.87714 6.61349
    CHANNELS 3 Zrotation Xrotation Yrotation
    JOINT Spine1
    {
      OFFSET 7.38963 1.71661e-005 0
      CHANNELS 3 Zrotation Xrotation Yrotation
      JOINT Spine2
      {
        OFFSET 11.9445 1.14441e-005 0
        CHANNELS 3 Zrotation Xrotation Yrotation
        JOINT Spine3
        {
          OFFSET 14.7254 4.19617e-005 0
          CHANNELS 3 Zrotation Xrotation Yrotation
          JOINT Spine4
          {
            OFFSET 10.9679 0 0
            CHANNELS 3 Zrotation Xrotation Yrotation
            JOINT RightShoulder
            {
              OFFSET 2.46616 -1.6653 3.69651
              CHANNELS 3 Zrotation Xrotation Yrotation
              JOINT RightArm
              {
                OFFSET 13.0012 0 0
                CHANNELS 3 Zrotation Xrotation Yrotation
                JOINT RightForeArm
                {
                  OFFSET 28.7848 1.52588e-005 0
                  CHANNELS 3 Zrotation Xrotation Yrotation
                  JOINT RightHand
                  {
                    OFFSET 26.5688 1.52588e-005 0
                    CHANNELS 3 Zrotation Xrotation Yrotation
                    End Site
                    {
                      OFFSET 0 0 0
                    }
                  }
                }
              }
            }
            JOINT LeftShoulder
            {
              OFFSET 2.38034 -1.29275 -3.75231
              CHANNELS 3 Zrotation Xrotation Yrotation
              JOINT LeftArm
              {
                OFFSET 16.3182 6.10351e-005 0
                CHANNELS 3 Zrotation Xrotation Yrotation
                JOINT LeftForeArm
                {
                  OFFSET 27.0901 0 0
                  CHANNELS 3 Zrotation Xrotation Yrotation
                  JOINT LeftHand
                  {
                    OFFSET 24.5451 1.52588e-005 0
                    CHANNELS 3 Zrotation Xrotation Yrotation
                    End Site
                    {
                      OFFSET 0 0 0
                    }
                  }
                }
              }
            }
            JOINT Neck
            {
              OFFSET 5.0226 -0.0266342 0
              CHANNELS 3 Zrotation Xrotation Yrotation
              JOINT Head
              {
                OFFSET 6.69363 2.86102e-005 0
                CHANNELS 3 Zrotation Xrotation Yrotation
                End Site
                {
                  OFFSET 0 0 0
                }
              }
            }
          }
        }
      }
    }
  }
}
MOTION
Frames:	18
Frame Time:	0.0416667
-265.788 80.9281 -257.476 76.1923 16.82 92.2632 -149.3 55.7374 112.59 -61.2681 25.1087 -29.985 56.7635 17.2164 58.4121 -103.282 59.0466 -119.397 -146.764 4.03942 107.021 85.4089 -11.8238 -90.7991 2.13776 -8.2533 8.25237 41.7567 25.5901 147.294 -6.63591 6.56714 -92.6229 13.6129 -14.4315 -3.38158 2.02128 -14.566 -2.7301 -21.0172 -12.7403 -7.62281 -1.00452 -12.7403 -7.62281 77.1388 -62.05 -115.305 9.02158 -23.1468 55.5951 -31.0647 63.1857 -120.022 -7.75322 2.06589 -52.6569 -121.285 -56.022 38.2665 -15.9486 3.23613 6.74875 -37.1801 4.31473 -117.649 6.45086 6.0712 65.428 -12.3742 -0.554153 24.6354 23.4671 -4.16675 -10.2398 
-263.509 82.0061 -253.58 77.4082 15.8658 91.5209 179.902 53.5628 113.975 -71.9297 -2.38238 -2.22615 57.8462 -11.7268 36.8064 -73.6295 54.878 -136.34 -147.812 5.25789 114.766 110.917 -13.6465 -84.5241 7.8763 -21.9154 13.5493 39.3375 21.354 154.525 -5.99472 7.96557 -92.1967 10.7984 -12.951 -3.18441 -0.80929 -13.0784 -2.60202 -23.7425 -11.39 -6.97187 -3.72982 -11.39 -6.97187 74.9779 -58.1575 -119.654 16.0076 -18.0255 46.0647 -5.25202 52.5923 -140.827 -9.75741 3.7781 -53.5441 -113.311 -47.903 44.2457 -12.3097 6.04978 0.0700988 -35.1194 1.59722 -117.297 9.30459 6.69577 55.7468 3.479 1.06225 1.81634 17.2849 1.40365 3.69401 
-260.475 83.6487 -249.342 77.5507 15.0513 91.0598 172.2 54.4236 96.1905 -66.7344 -16.7936 15.9337 23.721 -36.1692 -15.4891 109.241 -46.5539 -164.552 -148.637 7.94207 126.165 162.548 -15.3659 -71.7049 36.6792 -54.6896 54.1008 38.546 21.6681 159.037 -5.61448 8.56411 -92.0499 9.59886 -12.1174 -3.1327 -2.01721 -12.2433 -2.58881 -24.8941 -10.6117 -6.66325 -4.88149 -10.6117 -6.66324 78.9844 -50.726 -117.092 23.6994 -14.3597 40.0464 -8.00304 49.163 -135.298 -11.9699 4.82525 -53.6175 -106.767 -42.6373 50.7712 -13.9569 13.8026 -7.43673 -29.1396 -4.61231 -115.758 15.9584 6.44874 34.4608 10.4886 0.151546 -2.16327 14.7612 1.48076 4.38721 
-256.624 85.8388 -245.143 77.8506 14.3425 90.821 174.609 55.6008 90.3651 -75.2225 29.1557 9.58421 52.766 -8.6289 -15.201 96.7527 30.9717 -44.0046 -159.678 47.0377 120.851 25.8615 53.1056 -100.821 66.8651 29.8275 -0.22387 40.2228 27.9308 155.559 -5.35652 8.82093 -91.8984 9.09713 -11.5317 -2.94922 -2.52415 -11.6502 -2.43233 -25.3696 -10.1088 -6.30775 -5.35697 -10.1087 -6.30774 81.4 -46.8339 -115.049 28.1654 -13.2414 37.5581 -14.8033 45.661 -124.93 -16.551 6.92866 -53.7928 -103.568 -39.434 54.0157 -14.9179 23.4615 -12.3819 -18.7168 -11.6363 -111.149 25.4902 2.11872 4.57274 13.2332 -0.668398 -4.05469 13.1661 1.21751 4.74496 
-251.446 87.2394 -240.899 76.3983 13.0827 91.6165 -178.495 54.1451 85.4189 -65.4205 72.3931 -0.18055 53.8617 12.7738 25.114 58.2769 30.8895 -2.89035 -170.182 51.6416 118.856 -46.389 80.2222 -53.108 122.446 42.617 -20.5087 41.6358 32.5887 153.379 -5.09872 8.63263 -91.9595 9.47476 -11.0477 -3.05234 -2.15109 -11.1712 -2.55755 -24.9629 -9.61698 -6.25587 -4.9502 -9.61699 -6.25587 81.3523 -46.4691 -115.271 27.2949 -12.3492 38.9703 -20.0635 36.3742 -114.536 -23.8821 10.7884 -55.2551 -103.952 -39.5573 53.4765 -15.1147 33.1313 -13.6045 -3.30159 -17.3182 -103.073 33.7215 -4.31155 -17.2765 12.7927 -0.777141 -3.14337 12.6037 0.708597 3.95529 
-245.971 87.7261 -236.449 70.6622 10.8676 94.1189 -174.234 58.6536 83.5791 -53.1052 67.2686 -9.77885 55.2408 13.8913 22.3735 60.5397 32.6017 -4.17471 176.989 44.8033 120.424 -100.052 66.9612 12.2723 148.57 27.9107 -19.9644 43.8593 39.0661 150.658 -4.73543 8.1697 -92.3332 10.3745 -10.5009 -3.72323 -1.25762 -10.6544 -3.25297 -24.0129 -8.89569 -6.7236 -4.00029 -8.89571 -6.72361 81.5885 -45.3505 -115.362 26.7139 -11.2808 39.2027 -24.8314 21.5286 -104.048 -33.9904 15.9615 -55.5586 -103.815 -39.7347 53.7818 -14.4027 41.0941 -16.193 15.9999 -18.9757 -92.9903 39.4343 -6.969 -22.3926 13.2467 -0.480001 -2.12916 12.4487 0.520137 2.62098 
-240.901 87.6298 -231.766 71.089 9.00427 94.6895 -176.966 56.6248 84.755 -57.7697 58.7326 -3.55017 60.0785 13.4252 19.3654 56.5061 31.3992 2.8877 178.825 27.7455 110.708 -98.989 41.2455 35.2196 164.572 11.2125 -8.97238 45.3573 43.9741 149.694 -4.6471 8.3508 -92.2848 10.0146 -10.2993 -3.68663 -1.61908 -10.4514 -3.22555 -24.3647 -8.7145 -6.62697 -4.35203 -8.7145 -6.62698 81.4054 -45.6056 -115.543 26.1778 -11.5552 38.5489 -25.1533 7.7295 -96.7814 -41.5449 18.856 -53.1063 -104.381 -40.0624 53.0684 -12.5649 45.0068 -18.2085 31.875 -15.4681 -86.7894 38.5868 -4.52114 -16.0971 13.264 -0.250748 -3.15789 13.1528 0.994086 2.4508 
-235.712 87.3661 -226.841 72.928 7.27062 94.6068 176.853 51.0975 88.1579 -61.6239 53.8148 2.89381 60.6113 8.87465 17.3936 58.1746 34.0072 4.65813 -177.904 6.30324 106.276 -79.6247 25.4128 52.0545 168.172 -10.4874 5.24144 39.8752 26.0082 155.142 -4.7042 8.70373 -92.0519 9.32505 -10.3013 -3.30888 -2.3077 -10.4368 -2.84792 -25.0672 -8.82924 -6.26928 -5.05458 -8.82924 -6.26928 80.1614 -46.8236 -116.954 25.2621 -11.0016 38.2211 -15.6662 3.95539 -96.4989 -36.206 14.277 -47.6359 -104.534 -39.5197 52.5476 -12.7875 44.2901 -17.8397 39.5902 -12.897 -88.6583 23.67 -0.137274 -4.34095 12.6969 0.294824 -4.82669 13.7328 1.90016 2.22608 
-230.258 87.1617 -222.204 72.9345 5.15119 94.678 172.48 44.8343 91.5439 -62.2138 51.1682 6.69154 62.9843 11.532 22.195 60.4987 27.3606 -17.4767 174.098 -3.40616 112.257 -80.4834 42.7063 48.5973 154.725 -22.0876 6.37266 34.9415 -4.0289 148.191 -4.80524 8.88756 -91.9624 8.96013 -10.4596 -3.1684 -2.671 -10.5888 -2.70031 -25.4443 -9.02204 -6.18467 -5.43165 -9.02205 -6.18469 78.1961 -46.8637 -119.924 24.9655 -8.79034 39.1993 -5.44527 2.8972 -98.3949 -26.5393 7.67264 -37.7079 -104.776 -39.3579 52.0859 -12.9107 42.3041 -16.915 42.5527 -12.7428 -92.3929 2.44439 0.271763 4.22764 10.9914 1.82421 -3.06668 16.2048 2.46119 -0.236901 
-223.943 86.7613 -217.366 75.1494 -0.450033 95.4371 172.601 34.6776 94.7276 -60.359 41.6885 8.48515 69.4595 20.2624 27.0299 62.6848 25.2537 -28.1078 162.906 -7.65858 112.779 -79.8567 48.2392 33.1912 116.903 -28.5594 -0.0774761 16.0287 -37.7877 108.651 -4.50221 9.39829 -91.7809 7.94895 -9.76551 -2.97872 -3.6874 -9.887 -2.54226 -26.4292 -8.41735 -5.79147 -6.41661 -8.41738 -5.79151 78.394 -47.8157 -119.201 24.553 -7.79104 38.4152 -1.00248 2.5863 -100.619 -16.6268 2.22672 -21.3813 -104.767 -38.713 51.7558 -11.8687 42.0989 -18.1748 41.1734 -13.9046 -94.9798 -11.0045 -0.964066 7.43704 11.0711 3.06382 -3.80461 17.6046 3.91356 0.0623639 
-219.036 87.5443 -213.873 76.5126 -4.22821 95.1413 172.999 25.4461 94.9741 -52.8755 34.5465 8.75223 68.7015 22.4767 29.0095 67.347 28.6806 -27.4193 150.452 4.91805 102.099 -88.2937 28.4301 17.6867 56.4624 -7.67589 -5.16792 13.2336 -7.49357 40.1056 -4.63208 9.72712 -91.5684 7.30307 -9.9265 -2.62842 -4.33138 -10.0324 -2.18489 -27.0929 -8.67555 -5.50835 -7.08023 -8.67555 -5.50835 79.3686 -46.8159 -118.166 25.8907 -7.46142 37.4879 -0.93471 2.50915 -101.184 -6.50141 0.401315 -12.4043 -105.161 -38.5395 51.0468 -10.9028 43.4021 -18.8789 37.6242 -15.296 -95.9904 -11.0545 -1.04475 8.15547 12.8706 4.7513 -4.54832 16.7414 5.81702 0.154368 
-214.936 88.72 -210.853 78.7007 -7.3386 95.1578 173.788 16.1959 95.8444 -45.3575 33.855 8.67671 64.5799 21.3281 30.285 68.0576 32.1357 -20.3376 144.525 13.5812 98.4931 -87.313 19.4844 8.51638 46.0648 -3.16511 -2.08296 45.4234 3.54361 28.2082 -4.76609 10.0522 -91.3966 6.65951 -10.1149 -2.36153 -4.97299 -10.2089 -1.90963 -27.753 -8.93486 -5.31288 -7.74033 -8.93485 -5.31287 80.7274 -45.6267 -116.588 28.2393 -7.25364 37.5915 -1.16303 2.85708 -101.244 0.389645 0.0676205 -6.21061 -105.669 -37.9739 49.938 -9.218 45.5828 -20.5204 31.1334 -15.7246 -96.0789 -6.34551 -0.479056 6.98276 15.198 5.85022 -5.3194 15.1918 7.11582 -0.0916074 
-210.765 89.7934 -207.5 79.9222 -12.8234 95.6408 177.559 8.43982 97.9198 -37.58 34.2011 7.34733 59.8985 18.8252 29.0208 70.659 35.3187 -17.8083 143.004 23.8266 98.8407 -87.1659 14.954 5.10526 55.4671 -2.46137 -1.42551 45.0059 2.48625 18.3448 -4.52505 10.1948 -91.2044 6.3939 -9.54967 -2.03662 -5.24259 -9.62992 -1.61059 -28.001 -8.49365 -4.83058 -7.98834 -8.49363 -4.83059 80.977 -46.4314 -115.866 30.2652 -8.65691 38.5496 -5.43491 4.58743 -99.4391 1.32296 -0.0885964 -10.814 -105.312 -36.5622 49.7046 -7.4325 47.7654 -22.8414 22.4489 -15.357 -95.8405 -1.24452 -0.0102401 3.77468 15.8592 6.70957 -7.69549 14.7477 9.00848 1.90445 
-206.153 90.7359 -203.758 79.8825 -20.8613 96.139 -177.561 3.34154 100.427 -32.1387 35.1666 5.71306 54.4662 8.36897 20.9353 77.2664 41.3079 -16.5144 146.038 33.8944 101.373 -83.1914 12.731 4.65056 58.4602 -1.73699 -0.915616 39.5209 1.21356 16.1848 -3.79871 9.9293 -90.9987 6.95619 -8.01482 -1.62685 -4.69043 -8.07862 -1.27029 -27.3845 -7.1538 -3.97133 -7.37186 -7.1538 -3.97132 80.7626 -51.601 -114.157 26.329 -8.58409 40.6989 3.12493 1.88014 -101.033 3.22082 0.227328 -2.6411 -107.268 -35.5572 46.0097 -8.74588 49.795 -19.9103 17.9146 -15.2691 -95.8586 3.22794 0.23202 2.24481 12.6112 6.43298 -13.4658 13.8764 11.1872 8.49782 
-200.953 91.4758 -199.191 80.2323 -30.7532 95.0282 -172.038 -2.97164 101.091 -25.3857 33.7154 2.98657 49.5627 -0.23487 10.2996 72.8506 43.4309 -6.04846 153.55 41.3273 101.582 -73.5747 11.9066 5.78567 55.4626 -0.217043 0.125283 42.8886 1.97432 17.5352 -3.25705 9.76535 -90.7931 7.31164 -6.84627 -1.24895 -4.34161 -6.89456 -0.945038 -26.9946 -6.15353 -3.25577 -6.98192 -6.15353 -3.25578 81.1387 -49.2375 -114.492 27.5653 -8.40358 40.8577 3.04297 2.81585 -102.217 4.47064 0.249896 -3.27899 -106.562 -35.8318 47.2937 -9.86432 49.1121 -20.8049 17.9221 -14.8684 -95.591 4.80749 0.218156 0.474486 11.2768 8.64954 -10.6351 12.9455 12.4488 8.73293 
-195.162 91.7629 -193.614 77.634 -39.3168 91.3564 -169.452 -9.36044 99.7933 -14.6962 29.3504 0.946898 38.0675 -9.5034 0.283903 74.3254 43.5986 -8.26116 161.655 46.8544 100.913 -60.0651 6.4479 7.16637 57.2644 0.211272 0.402325 44.9983 1.77687 10.138 -2.83661 9.36798 -90.7418 8.11102 -5.98721 -1.11861 -3.54633 -6.0306 -0.853082 -26.1714 -5.37352 -2.87096 -6.15879 -5.37353 -2.87096 83.0315 -44.0606 -113.636 30.6681 -8.41691 40.3439 1.8853 3.29255 -103.569 5.02406 0.287515 -2.41765 -105.907 -37.2074 49.1288 -11.4945 47.6913 -21.2155 17.4519 -15.1293 -96.8532 3.84424 0.171831 0.47098 10.9143 10.9399 -4.92659 11.4752 12.8924 6.66762 
-189.031 92.1598 -187.119 71.5281 -45.5949 84.5145 -171.18 -10.7713 95.6311 -12.2315 27.8442 0.436505 31.6374 -13.8127 -0.895896 38.4146 9.83491 -13.3562 170.201 50.9332 98.9449 -44.921 5.146 7.54809 54.5175 1.15421 1.19054 51.9892 3.62947 15.3143 -2.56054 8.87001 -90.6709 9.11585 -5.40696 -0.946347 -2.54399 -5.44333 -0.70678 -25.1533 -4.87207 -2.53111 -5.1406 -4.87206 -2.53111 83.701 -39.5936 -114.346 33.0234 -9.08677 38.5463 1.08904 3.76458 -103.15 5.3837 0.287127 -2.3972 -105.382 -38.2302 50.5302 -11.1983 46.0588 -22.6818 19.3706 -15.6861 -98.0732 5.08704 0.243969 0.757953 9.97347 12.8208 -0.677641 12.1037 13.5159 4.91264 
-183.018 91.6404 -180.497 64.3009 -49.4384 75.3146 -173.884 -3.09435 91.5355 -25.67 20.8502 0.157701 37.222 -11.0075 1.97619 39.4425 10.7183 -13.3992 175.043 53.5761 97.4034 -35.3126 5.38661 6.78435 53.9494 1.34637 1.33815 53.8377 3.86249 14.4331 -2.1353 8.38425 -90.313 10.1068 -4.39766 -0.253401 -1.55668 -4.40455 -0.0592289 -24.1459 -4.11785 -1.5656 -4.13327 -4.11786 -1.5656 83.8848 -40.8297 -113.523 32.1408 -11.4277 36.5265 1.26882 3.92277 -102.857 4.88435 0.310315 -1.77631 -105.892 -37.8839 49.5377 -9.02836 45.3824 -24.594 20.8499 -16.2806 -98.5055 4.09358 0.165962 0.224418 9.27912 12.4626 -2.80406 12.8202 14.0503 7.18153 
